<svg xmlns="http://www.w3.org/2000/svg" viewBox="0 0 23.06 25.47"><defs><style>.cls-1{fill:#fff;}</style></defs><g id="Layer_2" data-name="Layer 2"><g id="Layer_7" data-name="Layer 7"><rect class="cls-1" x="4.29" y="14.48" width="9.65" height="1.61"/><rect class="cls-1" x="4.29" y="9.65" width="9.65" height="1.61"/><rect class="cls-1" x="4.29" y="4.83" width="9.65" height="1.61"/><path class="cls-1" d="M22,3.75H18.23V1.07A1,1,0,0,0,17.16,0H1.07A1,1,0,0,0,0,1.07V20.91A1,1,0,0,0,1.07,22H4.83V24.4A1,1,0,0,0,5.9,25.47H22a1,1,0,0,0,1.08-1.07V4.83A1,1,0,0,0,22,3.75ZM1.61,19.84V2.14a.49.49,0,0,1,.53-.53h14a.49.49,0,0,1,.53.53v17.7a.49.49,0,0,1-.53.54H2.14A.49.49,0,0,1,1.61,19.84Zm19.84,3.49a.49.49,0,0,1-.54.53H7.24a.49.49,0,0,1-.54-.53V22H17.16a1,1,0,0,0,1.07-1.07V5.63h2.68a.49.49,0,0,1,.54.54Z"/></g></g></svg>