<svg xmlns="http://www.w3.org/2000/svg" viewBox="0 0 22.29 25.47"><defs><style>.cls-1{fill:#fff;}</style></defs><g id="Layer_2" data-name="Layer 2"><g id="Layer_7" data-name="Layer 7"><path class="cls-1" d="M21.49,0H3.58A3.59,3.59,0,0,0,0,3.58V21.89a3.59,3.59,0,0,0,3.58,3.58H21.49a.8.8,0,1,0,0-1.59H3.58a2,2,0,1,1,0-4H21.49a.8.8,0,0,0,.8-.8V.8A.8.8,0,0,0,21.49,0ZM1.59,18.91V3.58a2,2,0,0,1,2-2H20.69V18.31H3.58A3.59,3.59,0,0,0,1.59,18.91Z"/><path class="cls-1" d="M14.62,6.57A3.54,3.54,0,0,0,12,3.93a3.59,3.59,0,0,0-3.06.68,3.54,3.54,0,0,0-1.35,2.8A.72.72,0,0,0,9,7.41a2.12,2.12,0,0,1,.81-1.68,2.15,2.15,0,1,1,2,3.7c-1.47.52-1.45,1.82-1.44,2.68v.3a.72.72,0,0,0,1.43,0v-.33c0-1,.06-1.15.49-1.31A3.59,3.59,0,0,0,14.62,6.57Z"/><path class="cls-1" d="M10.32,14.37a1.16,1.16,0,1,0,1.64,0A1.2,1.2,0,0,0,10.32,14.37Z"/></g></g></svg>