<svg xmlns="http://www.w3.org/2000/svg" viewBox="0 0 22.46 26.02"><defs><style>.cls-1{fill:#fff;}</style></defs><g id="Layer_2" data-name="Layer 2"><g id="Layer_7" data-name="Layer 7"><rect class="cls-1" x="5.48" y="6.3" width="11.5" height="1.64"/><rect class="cls-1" x="5.48" y="12.05" width="11.5" height="1.64"/><rect class="cls-1" x="5.48" y="17.53" width="11.5" height="1.64"/><path class="cls-1" d="M21.36,0H1.1A1,1,0,0,0,0,1.1V24.92A1,1,0,0,0,1.1,26H21.36a1,1,0,0,0,1.1-1.1V1.1A1,1,0,0,0,21.36,0ZM20.27,24.37H2.19a.5.5,0,0,1-.55-.54V2.19a.51.51,0,0,1,.55-.55H20.27a.5.5,0,0,1,.54.55V23.83h0A.49.49,0,0,1,20.27,24.37Z"/></g></g></svg>