<svg xmlns="http://www.w3.org/2000/svg" viewBox="0 0 23.02 25.82"><defs><style>.cls-1{fill:#fff;}</style></defs><g id="Layer_2" data-name="Layer 2"><g id="Layer_7" data-name="Layer 7"><path class="cls-1" d="M2.51,25.82a2.51,2.51,0,0,1-1.26-.34A2.48,2.48,0,0,1,0,23.31V2.51A2.48,2.48,0,0,1,1.25.34a2.5,2.5,0,0,1,2.51,0l18,10.4a2.51,2.51,0,0,1,0,4.34l-18,10.4A2.45,2.45,0,0,1,2.51,25.82ZM2.51,2a.63.63,0,0,0-.26.07A.53.53,0,0,0,2,2.51v20.8a.53.53,0,0,0,.25.44.52.52,0,0,0,.51,0l18-10.4a.51.51,0,0,0,0-.88l-18-10.4A.53.53,0,0,0,2.51,2Z"/></g></g></svg>