<svg xmlns="http://www.w3.org/2000/svg" viewBox="0 0 27.76 27.76"><defs><style>.cls-1{fill:none;stroke:#fff;stroke-miterlimit:10;stroke-width:1.5px;}</style></defs><g id="Layer_2" data-name="Layer 2"><g id="Layer_7" data-name="Layer 7"><path class="cls-1" d="M23.72,16.19l3.14-.3a13.54,13.54,0,0,0,0-4l-3.14-.31a10.3,10.3,0,0,0-1.25-3l2-2.44a12.92,12.92,0,0,0-2.84-2.83l-2.43,2a10,10,0,0,0-3-1.25L15.89.9a13.54,13.54,0,0,0-4,0L11.56,4a10,10,0,0,0-3,1.25l-2.44-2A13.37,13.37,0,0,0,3.28,6.12l2,2.44a10,10,0,0,0-1.25,3L.9,11.87a13.54,13.54,0,0,0,0,4l3.14.3a10,10,0,0,0,1.25,3l-2,2.44a13.37,13.37,0,0,0,2.84,2.83l2.44-2a9.93,9.93,0,0,0,3,1.25l.31,3.14a13.54,13.54,0,0,0,4,0l.3-3.14a10,10,0,0,0,3-1.25l2.43,2a12.92,12.92,0,0,0,2.84-2.83l-2-2.44A10.25,10.25,0,0,0,23.72,16.19Zm-9.84,3.18a5.49,5.49,0,1,1,5.49-5.49A5.49,5.49,0,0,1,13.88,19.37Z"/></g></g></svg>